<svg id="Layer_1" data-name="Layer 1" xmlns="http://www.w3.org/2000/svg" viewBox="0 0 512 512"><title>wink-tongue</title><g id="wink-tongue"><path d="M512,256c0,141.4-114.62,256-256,256S0,397.38,0,256,114.62,0,256,0,512,114.62,512,256Z" fill="#ffd764"/><path d="M294.74,172a61.44,61.44,0,1,0,61.42-61.42A61.41,61.41,0,0,0,294.74,172Z" fill="#fff"/><path d="M325.46,172a30.72,30.72,0,1,0,30.7-30.7A30.7,30.7,0,0,0,325.46,172Z" fill="#00b4dc"/><path d="M211.28,215.1a10.62,10.62,0,0,1-10.64-10.62,36.36,36.36,0,0,0-72.72,0,10.62,10.62,0,1,1-21.24,0,57.61,57.61,0,1,1,115.22,0,10.61,10.61,0,0,1-10.62,10.62Z" fill="#4a4a4a"/><path d="M389.12,310.6a133.12,133.12,0,1,1-266.24,0Z" fill="#ae453e"/><path d="M189.44,331.28V462.6c0,27.16,28.7,49.4,63.74,49.4h5.66c35,0,63.72-22.24,63.72-49.4V331.28Z" fill="#fa645a"/><path d="M256,440.32a10.23,10.23,0,0,1-10.24-10.24V343a10.24,10.24,0,1,1,20.48,0v87A10.23,10.23,0,0,1,256,440.32Z" fill="#ae453e"/></g></svg>